<svg width="148" height="192" fill="none" xmlns="http://www.w3.org/2000/svg"><path fill="#00D9C5" d="M0 0h148v192H0z"/><g opacity=".31"><path fill-rule="evenodd" clip-rule="evenodd" d="M130.764 168.951l-7.753-2.3-5.37 6.159c-.533.607-1.528.258-1.53-.535l-.03-8.045-7.481-3.023c-.742-.298-.693-1.349.071-1.614l7.734-2.673.748-8.024c.074-.794 1.099-1.095 1.574-.464l4.811 6.391 7.944-1.935a.85.85 0 01.9 1.328l-4.764 6.622 4.165 6.829c.411.675-.252 1.511-1.019 1.284zM48.213 167.275l6.506-5.931a1.235 1.235 0 011.793.123c.465.55.41 1.385-.118 1.866l-2.296 2.094 3.044 3.613a2.101 2.101 0 011.793.747 2.3 2.3 0 01-.2 3.153 2.089 2.089 0 01-3.029-.209 2.294 2.294 0 01-.478-1.946l-3.042-3.613-2.299 2.094a1.237 1.237 0 01-1.793-.123 1.363 1.363 0 01.119-1.868zm-11.451-14.903a.385.385 0 01-.086-.194l-.673-5.771c-.03-.254.195-.46.434-.395l5.407 1.454c.069.017.129.057.176.111l11.233 13.335-5.26 4.795-11.231-13.335zM131.946 93.951c-.722.473-1.664.289-2.104-.412-.44-.701-.211-1.653.511-2.126.722-.472 1.664-.288 2.103.413.44.701.212 1.653-.51 2.126zm-4.193 2.748c-.722.472-1.665.288-2.104-.413-.44-.701-.212-1.653.51-2.126.722-.472 1.664-.287 2.104.413.44.701.212 1.653-.51 2.126zm-9.76 3.956a.236.236 0 01-.077.32l-1.829 1.197 1.116 1.773a.235.235 0 01-.078.32l-1.225.804a.224.224 0 01-.316-.063l-1.116-1.773-1.825 1.196a.228.228 0 01-.318-.06l-.746-1.192c-.068-.104-.032-.249.077-.319l1.825-1.197-1.112-1.774a.238.238 0 01.076-.321l1.227-.802a.223.223 0 01.316.063l1.114 1.771 1.827-1.195a.228.228 0 01.318.061l.746 1.191zm-.046-18.566c1.255 2.416 1.018 3.574.767 4.797-.102.492-.207.998-.218 1.658-.034 1.72 1.145 2.434 1.258 2.497l10.351-6.783c.864-.566 1.992-.346 2.518.493l4.814 7.662c.526.84.254 1.979-.61 2.544l-22.933 15.028c-.864.566-1.99.344-2.519-.497l-4.811-7.66c-.528-.837-.254-1.978.61-2.544l10.872-7.124c-.605-.565-1.384-1.631-1.351-3.358.016-.83.144-1.451.256-1.998.22-1.067.365-1.776-.629-3.693-.214-.409-.021-.97.428-1.25.449-.283.986-.18 1.197.228zM53.108 80.821c-8.495 2.982-12.717 6.377-14.263 7.842l.802 2.147.817 2.19 4.092 10.962a4.922 4.922 0 00-1.895.298c-2.165.797-3.39 2.86-2.74 4.608.654 1.749 2.939 2.52 5.104 1.723 2.165-.798 3.391-2.86 2.74-4.611l-5.369-14.385c1.296-1.14 4.498-3.542 10.533-5.867L57.1 96.903a4.93 4.93 0 00-1.894.295c-2.165.797-3.391 2.862-2.74 4.61.653 1.747 2.938 2.518 5.103 1.721 2.165-.797 3.391-2.86 2.74-4.608l-5.236-14.03-.723-1.936-.833-2.233a2.265 2.265 0 00-.409.1z" fill="#fff"/><g fill-rule="evenodd" clip-rule="evenodd" fill="#fff"><path d="M113.721 32.876c-2.619-3.538-1.95-8.607 1.492-11.301 3.443-2.691 8.375-2.001 10.996 1.534 2.618 3.54 1.95 8.61-1.495 11.3a7.626 7.626 0 01-5.803 1.568c-2.081-.288-3.922-1.391-5.19-3.101zm17.287-3.342c.402-3.036-.369-6.049-2.169-8.48-1.803-2.432-4.422-3.997-7.376-4.41-2.954-.414-5.884.378-8.25 2.231-4.893 3.826-5.844 11.03-2.122 16.056 2.192 2.959 5.52 4.516 8.885 4.516 2.355 0 4.727-.762 6.741-2.335 2.366-1.85 3.891-4.541 4.291-7.578z"/><path d="M116.916 22.278a1.465 1.465 0 00-1.103.293 5.87 5.87 0 00-2.246 3.898 5.894 5.894 0 001.135 4.363 1.48 1.48 0 002.089.288c.652-.503.78-1.45.282-2.11a2.89 2.89 0 01-.555-2.134 2.871 2.871 0 011.1-1.91 1.49 1.49 0 00.573-.995 1.498 1.498 0 00-.29-1.112c-.24-.32-.59-.528-.985-.58zM134.834 44.74l-4.043-5.27a1.722 1.722 0 00-2.397-.322 1.689 1.689 0 00-.326 2.38l4.042 5.267c.335.44.848.67 1.363.67.363 0 .726-.113 1.035-.347a1.69 1.69 0 00.326-2.378z"/></g><g fill-rule="evenodd" clip-rule="evenodd" fill="#fff"><path d="M57.439 26.87l-4.787-8.717a2.407 2.407 0 00-3.3-.954l-12.045 6.804a2.479 2.479 0 00-.938 3.348l4.783 8.717.004.003c2.278 4.151 7.767 5.454 12.266 2.916 4.496-2.541 6.295-7.966 4.02-12.113l-.003-.003z"/><path d="M45.104 37.555c-3.212 1.677-5.566 1.243-6.974.58-1.526-.715-2.266-1.823-2.342-1.946l-.02-.027L33 31.497c-.283-.479-.102-1.082.408-1.351l4.247-2.215c.51-.266 1.153-.096 1.437.383.283.478.102 1.081-.411 1.35l-3.32 1.734 2.243 3.778c.051.072.57.789 1.552 1.222 1.37.607 3.026.413 4.919-.577.51-.266 1.153-.092 1.436.386.287.478.102 1.082-.407 1.348zM57.388 30.794c-.51.277-1.156.1-1.44-.398a1.022 1.022 0 01.409-1.407c1.897-1.03 2.947-2.297 3.12-3.77a3.78 3.78 0 00-.294-1.96l-2.245-3.932-3.327 1.806c-.511.277-1.156.1-1.44-.399a1.021 1.021 0 01.409-1.407l4.253-2.31a1.074 1.074 0 011.44.402l2.777 4.859c.004.01.01.019.017.028.07.134.686 1.354.53 3.016-.144 1.532-.99 3.726-4.209 5.472zM56.83 39.342l-4.367 2.5-2.024-3.737 4.366-2.501 2.024 3.738z"/><path d="M50.917 47.075c-1.254-1.686-.68-3.964 1.286-5.087l4.687-2.685c1.966-1.123 4.574-.668 5.831 1.017l-11.804 6.755z"/></g></g></svg>