<svg width="69" height="20" fill="none" xmlns="http://www.w3.org/2000/svg"><path fill-rule="evenodd" clip-rule="evenodd" d="M12.624 3.557h-3.22a.46.46 0 00-.46.461v11.218a.462.462 0 01-.466.461h-2.71a.455.455 0 01-.454-.46V4.017a.461.461 0 00-.46-.46H2.819c-1.431 0-2.3 0-2.766-1.179A2.688 2.688 0 01.667.074c.153-.154.465-.051.409.154-.056.205.158.46.613.46h10.935a.454.454 0 01.455.462v1.844c0 .358-.2.563-.455.563zm3.624 9.528a2.612 2.612 0 001.176-.359 1.44 1.44 0 00.731-1.127V6.58a.512.512 0 00-.307-.46 2.888 2.888 0 00-1.124-.052c-4.31.205-3.589 7.428-.476 7.018zM18.4 14.16a.225.225 0 00-.408-.05 4.17 4.17 0 01-.87.973 2.93 2.93 0 01-1.84.563c-3.737 0-4.55-3.944-4.55-5.379 0-1.946.512-6.198 5.368-6.198.703-.029 1.407.04 2.09.205l.057-.205a.537.537 0 01.455-.41h2.658a.46.46 0 01.466.462v7.94c0 .563-.154 2.202 1.022 2.612a.225.225 0 01.046.41c-2.755 1.639-4.09.297-4.493-.922zm13.696-4.507c0-2.869-1.938-3.38-2.556-3.38a2.653 2.653 0 00-1.125.306 2.782 2.782 0 00-.455.359.949.949 0 00-.256.615v4.241c.003.27.111.527.302.717.13.096.266.181.41.256.344.132.709.201 1.078.205.664-.04 2.602-.81 2.602-3.32zm-1.672 6.095a3.368 3.368 0 01-1.488-.307 3.453 3.453 0 01-.71-.512.235.235 0 00-.41.153v4.457a.461.461 0 01-.46.461h-2.709a.46.46 0 01-.465-.461V6.477c0-2.049-.301-2.715-1.124-2.817a.23.23 0 01-.098-.41c2.556-1.793 4.346.307 4.545.82.056.153.107.358.154.512a.235.235 0 00.414.102 3.34 3.34 0 01.817-.666 3.118 3.118 0 011.534-.41c1.426 0 4.857 1.179 4.857 6.096s-3.44 6.044-4.857 6.044zm15.484-12.19h-3.215a.46.46 0 00-.46.46v11.218a.461.461 0 01-.465.461h-2.715a.46.46 0 01-.46-.46V4.017a.461.461 0 00-.46-.46h-1.948c-1.426 0-2.3 0-2.755-1.179a2.683 2.683 0 01.608-2.305c.159-.154.466-.051.414.154-.05.205.149.46.614.46h10.94a.46.46 0 01.46.462v1.844c-.056.358-.256.563-.568.563h.01zm3.686 9.527a2.628 2.628 0 001.171-.359c.41-.233.679-.655.716-1.127V6.58a.512.512 0 00-.302-.46 2.888 2.888 0 00-1.125-.052c-4.294.205-3.588 7.428-.47 7.018h.01zm2.142 1.075a.22.22 0 00-.404-.05c-.237.369-.532.697-.874.973-.53.39-1.177.589-1.835.563-3.737 0-4.555-3.944-4.555-5.379 0-1.946.511-6.198 5.368-6.198.705-.029 1.41.04 2.096.205l.056-.205a.542.542 0 01.455-.41h2.663a.46.46 0 01.46.462v7.94c0 .563-.153 2.202 1.023 2.612a.23.23 0 01.051.41c-2.812 1.639-4.1.297-4.514-.922h.01zm13.655-4.507c0-2.869-1.943-3.38-2.557-3.38a2.64 2.64 0 00-1.13.306 3.321 3.321 0 00-.46.359.974.974 0 00-.255.615v4.241c.005.27.117.529.312.717.416.336.944.5 1.477.461.66-.04 2.602-.81 2.602-3.32h.01zm-1.688 6.095a3.368 3.368 0 01-1.487-.307 3.633 3.633 0 01-.716-.512.235.235 0 00-.404.153v4.457a.46.46 0 01-.46.461h-2.714a.455.455 0 01-.455-.461V6.477c0-2.049-.312-2.715-1.13-2.817a.23.23 0 01-.097-.41c2.556-1.793 4.345.307 4.55.82.05.153.102.358.148.512a.23.23 0 00.414.102c.236-.264.512-.489.818-.666a3.119 3.119 0 011.533-.41c1.432 0 4.857 1.179 4.857 6.096s-3.435 6.044-4.867 6.044h.01z" fill="#fff"/></svg>